<svg version="1.1" id="Layer_1" xmlns="http://www.w3.org/2000/svg" xmlns:xlink="http://www.w3.org/1999/xlink" x="0px" y="0px"
	 width="100%" viewBox="0 0 400 400" enable-background="new 0 0 400 400" xml:space="preserve">
<path fill="#28CC9E" opacity="1.000000" stroke="none" 
	d="
M256.000000,401.000000 
	C170.666672,401.000000 85.833336,401.000000 1.000000,401.000000 
	C1.000000,267.666656 1.000000,134.333328 1.000000,1.000000 
	C134.333328,1.000000 267.666656,1.000000 401.000000,1.000000 
	C401.000000,134.333328 401.000000,267.666656 401.000000,401.000000 
	C352.833344,401.000000 304.666656,401.000000 256.000000,401.000000 
M287.822845,192.228668 
	C287.897095,185.591568 288.627533,178.885101 287.934631,172.329086 
	C284.511566,139.939407 267.967865,115.680824 238.786316,102.063843 
	C204.173935,85.912674 171.159683,91.058723 142.128082,116.217957 
	C116.642769,138.303909 106.657478,176.852997 118.000214,208.434097 
	C129.715073,241.051315 152.803589,260.967712 187.016937,267.071655 
	C205.355743,270.343475 223.341339,267.874817 239.966492,259.234192 
	C266.855255,245.259216 282.901550,223.167740 287.822845,192.228668 
M276.283722,299.494171 
	C276.561646,302.444275 276.839600,305.394379 277.124878,308.422241 
	C279.310547,308.422241 281.326447,308.422241 283.348999,308.422241 
	C283.348999,299.762787 283.348999,291.561035 283.348999,283.274597 
	C280.999603,283.274597 279.078186,283.274597 277.053925,283.274597 
	C276.793304,286.288361 276.556763,289.023529 276.340118,291.528595 
	C266.551483,295.023895 270.183380,286.759918 268.635895,283.283386 
	C266.452209,283.283386 264.536743,283.283386 262.461304,283.283386 
	C262.461304,291.902100 262.461304,300.234711 262.461304,308.620056 
	C264.835815,308.620056 266.764038,308.620056 268.648865,308.620056 
	C270.211426,298.156342 270.211426,298.156342 276.283722,299.494171 
M77.579056,283.093811 
	C75.979492,283.195343 74.379929,283.296906 72.562241,283.412292 
	C72.562241,292.040222 72.562241,300.248657 72.562241,308.781830 
	C76.327248,308.781830 80.007133,309.554749 83.129723,308.566589 
	C86.315308,307.558533 90.113953,305.460846 91.624649,302.725037 
	C97.348969,292.358612 91.108643,283.415192 77.579056,283.093811 
M328.090851,306.614777 
	C332.214722,302.482086 331.985870,297.462555 329.975677,292.771240 
	C328.071838,288.328156 323.907806,287.597595 319.233521,289.167267 
	C318.925079,286.311951 318.651367,283.778229 318.378326,281.250732 
	C316.007172,281.250732 314.066772,281.250732 312.025574,281.250732 
	C312.025574,290.414337 312.025574,299.311646 312.025574,308.688477 
	C314.882751,308.427582 317.333801,308.221924 319.780731,307.975372 
	C322.358185,307.715668 324.931641,307.416840 328.090851,306.614777 
M257.120667,303.355927 
	C257.034058,300.202026 257.158478,297.023956 256.801239,293.901001 
	C256.447235,290.806030 254.714096,288.472717 251.294922,288.588470 
	C247.198227,288.727142 243.115540,289.279144 238.808228,289.672058 
	C238.808228,295.909332 238.808228,302.242065 238.808228,308.559967 
	C241.203323,308.559967 243.102615,308.559967 245.531387,308.559967 
	C245.531387,305.234894 245.244522,302.230499 245.644043,299.320312 
	C245.867035,297.696014 247.230606,296.228302 248.080200,294.690033 
	C248.836624,296.286652 250.044434,297.827606 250.249619,299.492157 
	C250.607941,302.399139 250.349457,305.382141 250.349457,308.616241 
	C252.783234,308.616241 254.545685,308.616241 256.749695,308.616241 
	C256.874176,307.164093 256.997223,305.728790 257.120667,303.355927 
M289.266602,304.995544 
	C290.805511,306.345428 292.286682,308.752502 293.894531,308.840332 
	C298.146851,309.072571 302.454010,308.300537 306.739960,307.919830 
	C306.739960,301.692322 306.739960,295.464813 306.739960,289.160522 
	C304.566742,289.160522 302.789581,289.160522 301.067261,289.160522 
	C298.836853,299.504364 297.812592,302.470459 296.038727,302.609589 
	C295.838562,298.190277 295.638763,293.778961 295.429321,289.154419 
	C293.113678,289.154419 291.178192,289.154419 289.068756,289.154419 
	C289.068756,294.330322 289.068756,299.269501 289.266602,304.995544 
M152.255814,293.829346 
	C152.165054,292.370483 152.074295,290.911652 151.978928,289.378632 
	C149.839783,289.378632 147.965927,289.378632 145.929871,289.378632 
	C145.929871,294.368591 145.779037,299.005463 145.976974,303.627350 
	C146.139221,307.416199 148.770554,310.079071 152.137558,308.939209 
	C155.847809,307.683105 159.087357,308.585175 162.545685,308.746429 
	C162.947998,308.765198 163.371429,308.331635 163.721222,308.142334 
	C163.721222,301.786163 163.721222,295.570740 163.721222,289.344666 
	C161.434540,289.344666 159.535934,289.344666 157.372589,289.344666 
	C157.282150,291.291779 157.178024,292.917053 157.138718,294.543884 
	C157.094681,296.367188 157.417999,298.268646 156.990097,299.989014 
	C156.703857,301.139893 155.386414,302.034271 154.530411,303.043427 
	C153.798965,302.099548 152.651581,301.243408 152.429688,300.192017 
	C152.060104,298.440796 152.283554,296.564453 152.255814,293.829346 
M230.323990,290.085114 
	C224.324280,287.679413 219.052032,288.804138 216.571838,293.018890 
	C214.113953,297.195740 215.142929,303.961914 218.654984,306.716827 
	C223.209656,310.289581 228.742859,309.850586 232.507812,305.617706 
	C236.344681,301.304016 235.723282,295.413940 230.323990,290.085114 
M179.417206,294.341034 
	C180.626556,293.393158 181.835922,292.445282 183.188766,291.384949 
	C177.631882,287.449799 172.101013,287.315643 169.608124,291.170898 
	C164.724228,298.723877 173.014893,299.611633 176.011444,303.885284 
	C173.929184,303.610840 171.846924,303.336365 169.571030,303.036377 
	C168.916855,304.103210 168.251129,305.188904 167.592117,306.263641 
	C173.571060,310.326294 179.544205,310.052856 182.350586,305.752380 
	C184.663971,302.207367 183.322205,300.063080 174.182709,293.790405 
	C176.519363,293.929047 177.633057,293.995148 179.417206,294.341034 
M187.653961,307.857727 
	C190.072433,308.271820 192.801987,309.576935 194.828857,308.869293 
	C197.239304,308.027832 199.904907,305.833221 200.906967,303.544891 
	C202.302933,300.357056 199.985382,297.981079 196.824020,296.716888 
	C195.548782,296.206909 194.352219,295.500244 192.635315,294.640442 
	C196.703629,293.552063 200.295380,291.736053 200.694077,290.734283 
	C195.354172,287.446564 190.297821,287.199432 187.706833,291.019135 
	C182.131500,299.238464 191.823929,299.503815 195.985489,304.317993 
	C192.372208,303.626556 190.236237,303.217804 186.995728,302.597687 
	C186.995728,304.317657 186.995728,305.915253 187.653961,307.857727 
M115.738045,301.640137 
	C116.280647,304.182953 115.945190,304.715363 113.096230,303.612518 
	C109.598991,302.258698 108.856743,304.096191 107.963768,306.517609 
	C114.108734,310.325287 120.044777,310.232361 122.436111,305.906555 
	C126.537010,298.488281 119.098740,297.522278 115.106232,294.622131 
	C117.523506,292.480774 122.518494,296.726501 122.772659,290.779907 
	C119.456032,287.906586 115.540222,287.385345 111.872322,289.652802 
	C110.236481,290.664032 108.277519,294.080566 108.841217,295.133789 
	C110.157433,297.593170 112.911774,299.282898 115.738045,301.640137 
M126.283615,302.673828 
	C130.196869,309.615479 135.996780,311.218781 141.828232,306.847534 
	C141.290375,304.527374 140.895966,302.651520 137.372131,303.284515 
	C136.212692,303.492798 133.230026,300.523560 133.355698,299.227905 
	C133.530411,297.426697 135.664917,295.620575 137.303467,294.216919 
	C138.659851,293.055023 140.512985,292.473022 142.146027,291.634094 
	C137.884705,288.083069 134.343384,288.327759 130.730820,290.269928 
	C125.909966,292.861725 125.622192,297.211273 126.283615,302.673828 
M104.299225,302.309174 
	C104.299225,298.037872 104.299225,293.766571 104.299225,289.435272 
	C101.641159,289.435272 99.734802,289.435272 97.573502,289.435272 
	C97.573502,296.033264 97.573502,302.281647 97.573502,308.776428 
	C99.838821,308.776428 101.777130,308.776428 104.299911,308.776428 
	C104.299911,306.809113 104.299911,305.022095 104.299225,302.309174 
M204.949142,306.125244 
	C205.361771,310.875488 208.601044,308.355713 210.965179,308.706940 
	C210.965179,302.058716 210.965179,295.710449 210.965179,289.052094 
	C208.761597,289.156006 207.032761,289.237549 204.937714,289.336334 
	C204.937714,294.933350 204.937714,300.063110 204.949142,306.125244 
M204.737625,284.001129 
	C206.666016,284.589874 208.594406,285.178619 210.522797,285.767395 
	C210.748077,284.275787 211.397217,282.667999 211.032684,281.338104 
	C210.828400,280.592865 208.601593,279.613678 207.892792,279.964783 
	C206.556473,280.626678 205.658859,282.174286 204.737625,284.001129 
M102.038345,280.063538 
	C100.398399,281.008942 98.758461,281.954346 97.118523,282.899750 
	C97.753532,283.929321 98.305634,285.749725 99.040489,285.826752 
	C100.657898,285.996307 102.367599,285.285583 104.039635,284.934143 
	C103.609245,283.403015 103.178856,281.871857 102.038345,280.063538 
z"/>
<path fill="#1B6D6A" opacity="1.000000" stroke="none" 
	d="
M287.767792,192.668259 
	C282.901550,223.167740 266.855255,245.259216 239.966492,259.234192 
	C223.341339,267.874817 205.355743,270.343475 187.016937,267.071655 
	C152.803589,260.967712 129.715073,241.051315 118.000214,208.434097 
	C106.657478,176.852997 116.642769,138.303909 142.128082,116.217957 
	C171.159683,91.058723 204.173935,85.912674 238.786316,102.063843 
	C267.967865,115.680824 284.511566,139.939407 287.934631,172.329086 
	C288.627533,178.885101 287.897095,185.591568 287.767792,192.668259 
M136.086563,170.427979 
	C127.916481,177.184509 128.866257,188.138367 137.992615,192.410934 
	C144.456909,195.437225 151.452972,192.634918 155.170456,185.756012 
	C155.905472,184.395935 157.388123,182.575104 158.621948,182.497772 
	C164.220093,182.146881 169.852585,182.344162 174.783630,182.344162 
	C177.165146,187.880341 179.246536,192.718796 181.810822,198.679840 
	C178.615616,201.628571 174.677719,204.941833 171.151627,208.646988 
	C169.279175,210.614532 168.028046,211.322830 165.268707,210.029129 
	C160.063004,207.588486 153.936356,209.259491 150.819794,213.304443 
	C146.551651,218.844070 146.602875,225.247665 150.954819,230.192444 
	C154.667862,234.411270 161.612656,235.504456 166.488434,232.637558 
	C172.661606,229.007782 174.439148,223.474762 171.925903,216.371719 
	C171.495010,215.153885 171.249542,213.105667 171.924973,212.386703 
	C175.961212,208.090408 180.292450,204.071274 184.008621,200.460587 
	C189.520340,202.841125 194.345734,204.925247 199.546539,207.171509 
	C199.546539,210.473541 199.421524,214.132172 199.578079,217.778687 
	C199.775497,222.377106 199.803635,226.176483 194.152878,228.362579 
	C189.459717,230.178192 187.553391,236.464722 188.666672,241.152145 
	C189.980118,246.682419 193.769867,250.514252 198.508499,251.103378 
	C205.130203,251.926636 209.483200,249.865372 212.301712,244.571854 
	C215.801270,237.999207 213.205750,230.890808 206.080338,226.925629 
	C204.730850,226.174652 202.967896,224.650803 202.890182,223.391342 
	C202.543793,217.777618 202.739761,212.130432 202.739761,207.161118 
	C208.171860,204.791245 212.978470,202.694260 219.063797,200.039413 
	C219.962326,201.241562 221.248886,203.194183 222.773087,204.939270 
	C224.404205,206.806778 226.065765,208.750671 228.062546,210.171387 
	C230.959122,212.232361 231.640182,214.141922 230.160950,217.681091 
	C228.159805,222.469025 229.257797,227.322754 233.183640,230.914520 
	C238.350769,235.641907 244.892761,235.763336 249.996277,231.642395 
	C254.789810,227.771759 256.166168,221.104218 253.239044,215.932922 
	C249.822723,209.897354 243.824905,207.800232 236.990189,210.099792 
	C235.714508,210.528992 233.646790,211.053192 232.973526,210.427063 
	C228.540207,206.304428 224.388687,201.878754 220.667679,198.084579 
	C223.037186,192.478775 225.084290,187.635712 227.326172,182.331848 
	C230.903885,182.331848 235.070663,182.539825 239.206863,182.273331 
	C243.338745,182.007095 246.129471,182.710236 248.071609,187.149139 
	C250.350128,192.356888 256.251740,194.483200 261.553986,193.291565 
	C267.082245,192.049133 270.724518,188.105576 271.319122,182.718643 
	C272.001251,176.538666 269.718109,172.103104 264.535034,169.538910 
	C258.010284,166.310959 250.983994,168.883743 247.242462,175.667252 
	C246.471802,177.064484 245.042236,179.010971 243.814926,179.088013 
	C238.043777,179.450287 232.237289,179.249222 227.267502,179.249222 
	C224.904739,173.723022 222.854431,168.927582 220.680359,163.842667 
	C223.534119,160.967957 226.973068,158.035583 229.736069,154.565063 
	C232.295029,151.350830 234.562241,150.447723 238.570267,152.159729 
	C243.700790,154.351196 249.113937,152.073471 252.415237,147.285416 
	C255.921753,142.199738 255.684738,136.876053 251.739487,132.106873 
	C248.187149,127.812668 242.094757,126.212044 237.287308,128.309952 
	C232.075699,130.584244 227.744980,136.516571 229.661331,141.381042 
	C232.099625,147.570389 229.474533,150.882828 225.489975,154.429153 
	C223.511185,156.190308 221.868546,158.352020 219.790634,159.968460 
	C218.871170,160.683716 217.024414,161.045715 215.984711,160.621597 
	C211.618027,158.840317 207.397339,156.701218 202.727722,154.507324 
	C202.727722,151.257309 202.977203,147.408905 202.663849,143.606888 
	C202.281937,138.972916 202.961334,135.718582 207.961868,133.464890 
	C213.003723,131.192596 214.819778,124.867989 213.296997,119.693497 
	C211.572388,113.833183 207.239685,110.563492 201.147369,110.524734 
	C195.044067,110.485909 190.698120,113.708527 188.947968,119.570885 
	C187.135651,125.641380 189.960403,131.483536 196.102859,134.943741 
	C197.467728,135.712601 199.293869,137.197739 199.372925,138.449982 
	C199.727249,144.061462 199.527145,149.707962 199.527145,154.662170 
	C194.080490,156.998978 189.255920,159.068893 183.825790,161.398621 
	C181.040085,158.556519 178.084137,154.909180 174.493454,152.062424 
	C171.179199,149.434830 170.603668,147.096191 172.200073,143.187744 
	C174.150162,138.413391 172.376541,134.018860 168.631912,130.643387 
	C164.561584,126.974312 159.909927,125.923752 154.804565,128.497147 
	C148.640823,131.604034 145.784637,138.513992 148.168427,144.459641 
	C150.700684,150.775589 157.379623,153.861450 164.149658,151.978455 
	C165.805038,151.518036 168.234879,150.670059 169.196228,151.422180 
	C173.972427,155.158859 178.376663,159.370987 182.911911,163.415665 
	C180.337646,166.953323 178.824509,169.180832 177.767838,171.607162 
	C176.732788,173.983841 176.162582,176.562973 175.371002,179.109100 
	C174.390930,179.166046 173.569794,179.252472 172.748398,179.255020 
	C168.248459,179.269043 163.733139,179.469681 159.257690,179.138641 
	C157.888580,179.037384 156.088013,177.752792 155.407028,176.506363 
	C151.056778,168.544006 145.283234,166.430298 136.086563,170.427979 
z"/>
<path fill="#D4FBE1" opacity="1.000000" stroke="none" 
	d="
M275.924622,299.173218 
	C270.211426,298.156342 270.211426,298.156342 268.648865,308.620056 
	C266.764038,308.620056 264.835815,308.620056 262.461304,308.620056 
	C262.461304,300.234711 262.461304,291.902100 262.461304,283.283386 
	C264.536743,283.283386 266.452209,283.283386 268.635895,283.283386 
	C270.183380,286.759918 266.551483,295.023895 276.340118,291.528595 
	C276.556763,289.023529 276.793304,286.288361 277.053925,283.274597 
	C279.078186,283.274597 280.999603,283.274597 283.348999,283.274597 
	C283.348999,291.561035 283.348999,299.762787 283.348999,308.422241 
	C281.326447,308.422241 279.310547,308.422241 277.124878,308.422241 
	C276.839600,305.394379 276.561646,302.444275 275.924622,299.173218 
z"/>
<path fill="#D5FCE1" opacity="1.000000" stroke="none" 
	d="
M78.028564,283.094330 
	C91.108643,283.415192 97.348969,292.358612 91.624649,302.725037 
	C90.113953,305.460846 86.315308,307.558533 83.129723,308.566589 
	C80.007133,309.554749 76.327248,308.781830 72.562241,308.781830 
	C72.562241,300.248657 72.562241,292.040222 72.562241,283.412292 
	C74.379929,283.296906 75.979492,283.195343 78.028564,283.094330 
M79.288338,296.463196 
	C79.445015,298.659698 79.601692,300.856201 79.762230,303.106781 
	C85.695129,302.094116 86.511787,300.725098 86.123032,294.273041 
	C85.881760,290.268646 83.793571,288.840271 79.287445,289.089264 
	C79.287445,291.377747 79.287445,293.464111 79.288338,296.463196 
z"/>
<path fill="#D6FCE1" opacity="1.000000" stroke="none" 
	d="
M327.798859,306.874939 
	C324.931641,307.416840 322.358185,307.715668 319.780731,307.975372 
	C317.333801,308.221924 314.882751,308.427582 312.025574,308.688477 
	C312.025574,299.311646 312.025574,290.414337 312.025574,281.250732 
	C314.066772,281.250732 316.007172,281.250732 318.378326,281.250732 
	C318.651367,283.778229 318.925079,286.311951 319.233521,289.167267 
	C323.907806,287.597595 328.071838,288.328156 329.975677,292.771240 
	C331.985870,297.462555 332.214722,302.482086 327.798859,306.874939 
M323.769348,301.073486 
	C323.781586,299.430389 324.148102,297.673920 323.672150,296.187103 
	C323.389984,295.305603 321.812256,294.454651 320.751282,294.364594 
	C320.199860,294.317810 319.027252,295.925659 318.975067,296.834259 
	C318.864746,298.755219 319.306122,300.707855 319.521149,302.647491 
	C320.808990,302.375793 322.096802,302.104095 323.769348,301.073486 
z"/>
<path fill="#D1FADF" opacity="1.000000" stroke="none" 
	d="
M257.120453,303.824707 
	C256.997223,305.728790 256.874176,307.164093 256.749695,308.616241 
	C254.545685,308.616241 252.783234,308.616241 250.349457,308.616241 
	C250.349457,305.382141 250.607941,302.399139 250.249619,299.492157 
	C250.044434,297.827606 248.836624,296.286652 248.080200,294.690033 
	C247.230606,296.228302 245.867035,297.696014 245.644043,299.320312 
	C245.244522,302.230499 245.531387,305.234894 245.531387,308.559967 
	C243.102615,308.559967 241.203323,308.559967 238.808228,308.559967 
	C238.808228,302.242065 238.808228,295.909332 238.808228,289.672058 
	C243.115540,289.279144 247.198227,288.727142 251.294922,288.588470 
	C254.714096,288.472717 256.447235,290.806030 256.801239,293.901001 
	C257.158478,297.023956 257.034058,300.202026 257.120453,303.824707 
z"/>
<path fill="#D3FBE0" opacity="1.000000" stroke="none" 
	d="
M289.167664,304.602112 
	C289.068756,299.269501 289.068756,294.330322 289.068756,289.154419 
	C291.178192,289.154419 293.113678,289.154419 295.429321,289.154419 
	C295.638763,293.778961 295.838562,298.190277 296.038727,302.609589 
	C297.812592,302.470459 298.836853,299.504364 301.067261,289.160522 
	C302.789581,289.160522 304.566742,289.160522 306.739960,289.160522 
	C306.739960,295.464813 306.739960,301.692322 306.739685,307.924011 
	C302.454010,308.300537 298.146851,309.072571 293.894531,308.840332 
	C292.286682,308.752502 290.805511,306.345428 289.167664,304.602112 
z"/>
<path fill="#D7FCE2" opacity="1.000000" stroke="none" 
	d="
M152.256561,294.285065 
	C152.283554,296.564453 152.060104,298.440796 152.429688,300.192017 
	C152.651581,301.243408 153.798965,302.099548 154.530411,303.043427 
	C155.386414,302.034271 156.703857,301.139893 156.990097,299.989014 
	C157.417999,298.268646 157.094681,296.367188 157.138718,294.543884 
	C157.178024,292.917053 157.282150,291.291779 157.372589,289.344666 
	C159.535934,289.344666 161.434540,289.344666 163.721222,289.344666 
	C163.721222,295.570740 163.721222,301.786163 163.721222,308.142334 
	C163.371429,308.331635 162.947998,308.765198 162.545685,308.746429 
	C159.087357,308.585175 155.847809,307.683105 152.137558,308.939209 
	C148.770554,310.079071 146.139221,307.416199 145.976974,303.627350 
	C145.779037,299.005463 145.929871,294.368591 145.929871,289.378632 
	C147.965927,289.378632 149.839783,289.378632 151.978928,289.378632 
	C152.074295,290.911652 152.165054,292.370483 152.256561,294.285065 
z"/>
<path fill="#D7FCE1" opacity="1.000000" stroke="none" 
	d="
M230.620300,290.310150 
	C235.723282,295.413940 236.344681,301.304016 232.507812,305.617706 
	C228.742859,309.850586 223.209656,310.289581 218.654984,306.716827 
	C215.142929,303.961914 214.113953,297.195740 216.571838,293.018890 
	C219.052032,288.804138 224.324280,287.679413 230.620300,290.310150 
M222.458466,301.526245 
	C223.771027,302.001862 225.083588,302.477448 226.396133,302.953064 
	C226.760376,300.782257 227.410843,298.602264 227.341293,296.445435 
	C227.315201,295.636536 225.615173,294.881592 224.678329,294.102051 
	C223.777618,295.850922 222.833313,297.579712 222.011154,299.364746 
	C221.836487,299.743988 222.107285,300.328400 222.458466,301.526245 
z"/>
<path fill="#D5FCE1" opacity="1.000000" stroke="none" 
	d="
M179.081970,294.201141 
	C177.633057,293.995148 176.519363,293.929047 174.182709,293.790405 
	C183.322205,300.063080 184.663971,302.207367 182.350586,305.752380 
	C179.544205,310.052856 173.571060,310.326294 167.592117,306.263641 
	C168.251129,305.188904 168.916855,304.103210 169.571030,303.036377 
	C171.846924,303.336365 173.929184,303.610840 176.011444,303.885284 
	C173.014893,299.611633 164.724228,298.723877 169.608124,291.170898 
	C172.101013,287.315643 177.631882,287.449799 183.188766,291.384949 
	C181.835922,292.445282 180.626556,293.393158 179.081970,294.201141 
z"/>
<path fill="#D5FCE1" opacity="1.000000" stroke="none" 
	d="
M187.324844,307.685303 
	C186.995728,305.915253 186.995728,304.317657 186.995728,302.597687 
	C190.236237,303.217804 192.372208,303.626556 195.985489,304.317993 
	C191.823929,299.503815 182.131500,299.238464 187.706833,291.019135 
	C190.297821,287.199432 195.354172,287.446564 200.694077,290.734283 
	C200.295380,291.736053 196.703629,293.552063 192.635315,294.640442 
	C194.352219,295.500244 195.548782,296.206909 196.824020,296.716888 
	C199.985382,297.981079 202.302933,300.357056 200.906967,303.544891 
	C199.904907,305.833221 197.239304,308.027832 194.828857,308.869293 
	C192.801987,309.576935 190.072433,308.271820 187.324844,307.685303 
z"/>
<path fill="#D3FBE0" opacity="1.000000" stroke="none" 
	d="
M115.410843,301.462219 
	C112.911774,299.282898 110.157433,297.593170 108.841217,295.133789 
	C108.277519,294.080566 110.236481,290.664032 111.872322,289.652802 
	C115.540222,287.385345 119.456032,287.906586 122.772659,290.779907 
	C122.518494,296.726501 117.523506,292.480774 115.106232,294.622131 
	C119.098740,297.522278 126.537010,298.488281 122.436111,305.906555 
	C120.044777,310.232361 114.108734,310.325287 107.963768,306.517609 
	C108.856743,304.096191 109.598991,302.258698 113.096230,303.612518 
	C115.945190,304.715363 116.280647,304.182953 115.410843,301.462219 
z"/>
<path fill="#D7FCE1" opacity="1.000000" stroke="none" 
	d="
M126.183853,302.280334 
	C125.622192,297.211273 125.909966,292.861725 130.730820,290.269928 
	C134.343384,288.327759 137.884705,288.083069 142.146027,291.634094 
	C140.512985,292.473022 138.659851,293.055023 137.303467,294.216919 
	C135.664917,295.620575 133.530411,297.426697 133.355698,299.227905 
	C133.230026,300.523560 136.212692,303.492798 137.372131,303.284515 
	C140.895966,302.651520 141.290375,304.527374 141.828232,306.847534 
	C135.996780,311.218781 130.196869,309.615479 126.183853,302.280334 
z"/>
<path fill="#D2FBE0" opacity="1.000000" stroke="none" 
	d="
M104.299568,302.772125 
	C104.299911,305.022095 104.299911,306.809113 104.299911,308.776428 
	C101.777130,308.776428 99.838821,308.776428 97.573502,308.776428 
	C97.573502,302.281647 97.573502,296.033264 97.573502,289.435272 
	C99.734802,289.435272 101.641159,289.435272 104.299225,289.435272 
	C104.299225,293.766571 104.299225,298.037872 104.299568,302.772125 
z"/>
<path fill="#DBFDE3" opacity="1.000000" stroke="none" 
	d="
M204.943420,305.659058 
	C204.937714,300.063110 204.937714,294.933350 204.937714,289.336334 
	C207.032761,289.237549 208.761597,289.156006 210.965179,289.052094 
	C210.965179,295.710449 210.965179,302.058716 210.965179,308.706940 
	C208.601044,308.355713 205.361771,310.875488 204.943420,305.659058 
z"/>
<path fill="#D1FADF" opacity="1.000000" stroke="none" 
	d="
M204.658264,283.677429 
	C205.658859,282.174286 206.556473,280.626678 207.892792,279.964783 
	C208.601593,279.613678 210.828400,280.592865 211.032684,281.338104 
	C211.397217,282.667999 210.748077,284.275787 210.522797,285.767395 
	C208.594406,285.178619 206.666016,284.589874 204.658264,283.677429 
z"/>
<path fill="#D2FBE0" opacity="1.000000" stroke="none" 
	d="
M102.393402,280.202148 
	C103.178856,281.871857 103.609245,283.403015 104.039635,284.934143 
	C102.367599,285.285583 100.657898,285.996307 99.040489,285.826752 
	C98.305634,285.749725 97.753532,283.929321 97.118515,282.899750 
	C98.758461,281.954346 100.398399,281.008942 102.393402,280.202148 
z"/>
<path fill="#CCF1D9" opacity="1.000000" stroke="none" 
	d="
M136.397675,170.207275 
	C145.283234,166.430298 151.056778,168.544006 155.407028,176.506363 
	C156.088013,177.752792 157.888580,179.037384 159.257690,179.138641 
	C163.733139,179.469681 168.248459,179.269043 172.748398,179.255020 
	C173.569794,179.252472 174.390930,179.166046 175.371002,179.109100 
	C176.162582,176.562973 176.732788,173.983841 177.767838,171.607162 
	C178.824509,169.180832 180.337646,166.953323 182.911911,163.415665 
	C178.376663,159.370987 173.972427,155.158859 169.196228,151.422180 
	C168.234879,150.670059 165.805038,151.518036 164.149658,151.978455 
	C157.379623,153.861450 150.700684,150.775589 148.168427,144.459641 
	C145.784637,138.513992 148.640823,131.604034 154.804565,128.497147 
	C159.909927,125.923752 164.561584,126.974312 168.631912,130.643387 
	C172.376541,134.018860 174.150162,138.413391 172.200073,143.187744 
	C170.603668,147.096191 171.179199,149.434830 174.493454,152.062424 
	C178.084137,154.909180 181.040085,158.556519 183.825790,161.398621 
	C189.255920,159.068893 194.080490,156.998978 199.527145,154.662170 
	C199.527145,149.707962 199.727249,144.061462 199.372925,138.449982 
	C199.293869,137.197739 197.467728,135.712601 196.102859,134.943741 
	C189.960403,131.483536 187.135651,125.641380 188.947968,119.570885 
	C190.698120,113.708527 195.044067,110.485909 201.147369,110.524734 
	C207.239685,110.563492 211.572388,113.833183 213.296997,119.693497 
	C214.819778,124.867989 213.003723,131.192596 207.961868,133.464890 
	C202.961334,135.718582 202.281937,138.972916 202.663849,143.606888 
	C202.977203,147.408905 202.727722,151.257309 202.727722,154.507324 
	C207.397339,156.701218 211.618027,158.840317 215.984711,160.621597 
	C217.024414,161.045715 218.871170,160.683716 219.790634,159.968460 
	C221.868546,158.352020 223.511185,156.190308 225.489975,154.429153 
	C229.474533,150.882828 232.099625,147.570389 229.661331,141.381042 
	C227.744980,136.516571 232.075699,130.584244 237.287308,128.309952 
	C242.094757,126.212044 248.187149,127.812668 251.739487,132.106873 
	C255.684738,136.876053 255.921753,142.199738 252.415237,147.285416 
	C249.113937,152.073471 243.700790,154.351196 238.570267,152.159729 
	C234.562241,150.447723 232.295029,151.350830 229.736069,154.565063 
	C226.973068,158.035583 223.534119,160.967957 220.680359,163.842667 
	C222.854431,168.927582 224.904739,173.723022 227.267502,179.249222 
	C232.237289,179.249222 238.043777,179.450287 243.814926,179.088013 
	C245.042236,179.010971 246.471802,177.064484 247.242462,175.667252 
	C250.983994,168.883743 258.010284,166.310959 264.535034,169.538910 
	C269.718109,172.103104 272.001251,176.538666 271.319122,182.718643 
	C270.724518,188.105576 267.082245,192.049133 261.553986,193.291565 
	C256.251740,194.483200 250.350128,192.356888 248.071609,187.149139 
	C246.129471,182.710236 243.338745,182.007095 239.206863,182.273331 
	C235.070663,182.539825 230.903885,182.331848 227.326172,182.331848 
	C225.084290,187.635712 223.037186,192.478775 220.667679,198.084579 
	C224.388687,201.878754 228.540207,206.304428 232.973526,210.427063 
	C233.646790,211.053192 235.714508,210.528992 236.990189,210.099792 
	C243.824905,207.800232 249.822723,209.897354 253.239044,215.932922 
	C256.166168,221.104218 254.789810,227.771759 249.996277,231.642395 
	C244.892761,235.763336 238.350769,235.641907 233.183640,230.914520 
	C229.257797,227.322754 228.159805,222.469025 230.160950,217.681091 
	C231.640182,214.141922 230.959122,212.232361 228.062546,210.171387 
	C226.065765,208.750671 224.404205,206.806778 222.773087,204.939270 
	C221.248886,203.194183 219.962326,201.241562 219.063797,200.039413 
	C212.978470,202.694260 208.171860,204.791245 202.739761,207.161118 
	C202.739761,212.130432 202.543793,217.777618 202.890182,223.391342 
	C202.967896,224.650803 204.730850,226.174652 206.080338,226.925629 
	C213.205750,230.890808 215.801270,237.999207 212.301712,244.571854 
	C209.483200,249.865372 205.130203,251.926636 198.508499,251.103378 
	C193.769867,250.514252 189.980118,246.682419 188.666672,241.152145 
	C187.553391,236.464722 189.459717,230.178192 194.152878,228.362579 
	C199.803635,226.176483 199.775497,222.377106 199.578079,217.778687 
	C199.421524,214.132172 199.546539,210.473541 199.546539,207.171509 
	C194.345734,204.925247 189.520340,202.841125 184.008621,200.460587 
	C180.292450,204.071274 175.961212,208.090408 171.924973,212.386703 
	C171.249542,213.105667 171.495010,215.153885 171.925903,216.371719 
	C174.439148,223.474762 172.661606,229.007782 166.488434,232.637558 
	C161.612656,235.504456 154.667862,234.411270 150.954819,230.192444 
	C146.602875,225.247665 146.551651,218.844070 150.819794,213.304443 
	C153.936356,209.259491 160.063004,207.588486 165.268707,210.029129 
	C168.028046,211.322830 169.279175,210.614532 171.151627,208.646988 
	C174.677719,204.941833 178.615616,201.628571 181.810822,198.679840 
	C179.246536,192.718796 177.165146,187.880341 174.783630,182.344162 
	C169.852585,182.344162 164.220093,182.146881 158.621948,182.497772 
	C157.388123,182.575104 155.905472,184.395935 155.170456,185.756012 
	C151.452972,192.634918 144.456909,195.437225 137.992615,192.410934 
	C128.866257,188.138367 127.916481,177.184509 136.397675,170.207275 
M222.961533,179.720276 
	C222.538086,177.777283 222.255493,175.790466 221.666916,173.898849 
	C219.067825,165.545792 211.678558,159.793518 202.855652,159.139511 
	C193.933014,158.478119 185.001129,163.426666 181.440674,171.004074 
	C177.533951,179.318420 178.941788,189.398071 184.986801,195.657166 
	C191.992676,202.911194 200.422928,204.713470 209.614563,200.943604 
	C218.491776,197.302673 222.630020,190.060013 222.961533,179.720276 
M169.197922,225.318726 
	C169.426834,224.524338 169.791626,223.741928 169.862915,222.933640 
	C170.384583,217.019180 165.923676,211.920792 160.305908,211.945770 
	C154.872513,211.969940 150.038330,216.931808 151.287231,222.534775 
	C151.968628,225.591797 154.689896,229.312195 157.459717,230.529297 
	C161.854202,232.460266 166.247040,230.601639 169.197922,225.318726 
M251.252808,221.527328 
	C250.605392,215.970276 246.571014,211.954041 241.800461,212.117493 
	C236.898285,212.285446 232.335007,216.997574 232.346451,221.879883 
	C232.356567,226.197861 236.324417,230.666275 240.477997,231.037262 
	C246.865067,231.607712 250.278229,228.863052 251.252808,221.527328 
M235.764526,133.048004 
	C231.327393,138.605530 231.176392,142.410629 235.225281,146.636520 
	C238.913467,150.485962 243.472076,150.882706 247.649109,147.717850 
	C251.290619,144.958755 252.461060,139.188370 250.161880,135.329590 
	C247.429352,130.743515 242.238617,129.662094 235.764526,133.048004 
M157.144226,131.043488 
	C152.382492,132.690063 150.750168,136.130341 150.882523,141.012695 
	C150.996033,145.199295 153.566223,147.398880 156.746979,148.823273 
	C160.337357,150.431076 163.814011,149.623886 166.729233,146.722733 
	C169.598343,143.867462 170.645172,140.565109 169.134506,136.801025 
	C167.119415,131.780014 163.174042,130.077927 157.144226,131.043488 
M194.377151,231.967392 
	C190.688980,237.087326 190.514282,241.356781 193.844910,244.975037 
	C196.835403,248.223801 201.888504,249.081100 205.645538,246.977127 
	C210.558121,244.226044 212.142456,239.045761 209.520325,234.307785 
	C206.680084,229.175705 201.062820,228.076523 194.377151,231.967392 
M136.494965,174.074997 
	C133.544174,177.982422 132.517136,181.987228 135.626343,186.364029 
	C137.983459,189.682083 141.110718,191.105408 145.061234,190.273666 
	C149.218948,189.398300 152.375778,186.591858 152.266418,182.534988 
	C152.180038,179.330399 150.587997,175.477264 148.357697,173.182175 
	C145.064880,169.793671 140.769867,170.751495 136.494965,174.074997 
M251.445633,186.811157 
	C257.460297,193.831329 266.629425,190.012833 268.074768,182.956619 
	C268.976410,178.554855 267.415009,175.012146 263.694977,172.652023 
	C259.840302,170.206512 255.923218,170.716461 252.678543,173.796387 
	C248.945435,177.339920 248.648102,181.608673 251.445633,186.811157 
M197.363464,114.263252 
	C193.441742,116.439629 190.450043,119.673065 191.721725,124.194618 
	C192.512146,127.005005 194.939850,130.072983 197.487198,131.500015 
	C201.151962,133.553040 205.315063,132.593582 208.281570,129.227402 
	C211.039154,126.098328 211.799484,122.449715 209.573196,118.704796 
	C206.991104,114.361351 203.107361,112.788528 197.363464,114.263252 
z"/>
<path fill="#38D0A4" opacity="1.000000" stroke="none" 
	d="
M79.287888,296.006836 
	C79.287445,293.464111 79.287445,291.377747 79.287445,289.089264 
	C83.793571,288.840271 85.881760,290.268646 86.123032,294.273041 
	C86.511787,300.725098 85.695129,302.094116 79.762230,303.106781 
	C79.601692,300.856201 79.445015,298.659698 79.287888,296.006836 
z"/>
<path fill="#2FCEA1" opacity="1.000000" stroke="none" 
	d="
M323.576996,301.452942 
	C322.096802,302.104095 320.808990,302.375793 319.521179,302.647491 
	C319.306122,300.707855 318.864746,298.755219 318.975067,296.834259 
	C319.027252,295.925659 320.199860,294.317810 320.751282,294.364594 
	C321.812256,294.454651 323.389984,295.305603 323.672150,296.187103 
	C324.148102,297.673920 323.781586,299.430389 323.576996,301.452942 
z"/>
<path fill="#38D0A4" opacity="1.000000" stroke="none" 
	d="
M222.315643,301.172241 
	C222.107285,300.328400 221.836487,299.743988 222.011154,299.364746 
	C222.833313,297.579712 223.777618,295.850922 224.678314,294.102051 
	C225.615173,294.881592 227.315201,295.636536 227.341293,296.445435 
	C227.410843,298.602264 226.760376,300.782257 226.396149,302.953064 
	C225.083588,302.477448 223.771027,302.001862 222.315643,301.172241 
z"/>
<path fill="#1E6F6C" opacity="1.000000" stroke="none" 
	d="
M222.969025,180.146606 
	C222.630020,190.060013 218.491776,197.302673 209.614563,200.943604 
	C200.422928,204.713470 191.992676,202.911194 184.986801,195.657166 
	C178.941788,189.398071 177.533951,179.318420 181.440674,171.004074 
	C185.001129,163.426666 193.933014,158.478119 202.855652,159.139511 
	C211.678558,159.793518 219.067825,165.545792 221.666916,173.898849 
	C222.255493,175.790466 222.538086,177.777283 222.969025,180.146606 
M215.259598,181.885284 
	C213.020950,178.940292 210.809052,175.973053 208.444794,173.132599 
	C208.351288,173.020248 206.806610,174.115768 205.748260,174.764923 
	C207.791183,177.027878 209.498184,178.918747 211.278030,180.890305 
	C209.324905,183.084579 207.712250,184.896347 206.099594,186.708130 
	C206.207977,187.186249 206.316360,187.664383 206.424744,188.142502 
	C207.634735,187.910217 209.137848,188.047562 209.993729,187.368774 
	C211.783386,185.949417 213.231720,184.099686 215.259598,181.885284 
M195.926010,186.565308 
	C194.306442,184.732788 192.686874,182.900284 190.825348,180.794006 
	C192.348892,179.193787 193.801788,177.862823 194.986008,176.324951 
	C195.440094,175.735260 195.280945,174.673340 195.401230,173.826614 
	C194.427643,173.850113 193.074844,173.470291 192.546356,173.967178 
	C190.303726,176.075729 188.305725,178.444473 186.066071,180.884033 
	C188.227661,183.219696 189.977783,185.460114 192.116806,187.230652 
	C192.855438,187.842026 194.561859,187.284164 195.926010,186.565308 
M201.112747,186.555786 
	C202.328827,182.806183 203.672058,179.089752 204.665512,175.282059 
	C204.894409,174.404770 203.924225,173.214615 203.505829,172.168442 
	C202.740936,172.797684 201.534897,173.286865 201.283371,174.079086 
	C199.756470,178.888489 198.447159,183.766998 197.065201,188.622421 
	C197.452805,188.995789 197.840424,189.369171 198.228027,189.742554 
	C199.163376,188.934525 200.098724,188.126480 201.112747,186.555786 
z"/>
<path fill="#1F6F6D" opacity="1.000000" stroke="none" 
	d="
M169.011032,225.662140 
	C166.247040,230.601639 161.854202,232.460266 157.459717,230.529297 
	C154.689896,229.312195 151.968628,225.591797 151.287231,222.534775 
	C150.038330,216.931808 154.872513,211.969940 160.305908,211.945770 
	C165.923676,211.920792 170.384583,217.019180 169.862915,222.933640 
	C169.791626,223.741928 169.426834,224.524338 169.011032,225.662140 
z"/>
<path fill="#1E6F6C" opacity="1.000000" stroke="none" 
	d="
M251.251465,221.951141 
	C250.278229,228.863052 246.865067,231.607712 240.477997,231.037262 
	C236.324417,230.666275 232.356567,226.197861 232.346451,221.879883 
	C232.335007,216.997574 236.898285,212.285446 241.800461,212.117493 
	C246.571014,211.954041 250.605392,215.970276 251.251465,221.951141 
z"/>
<path fill="#1F6F6C" opacity="1.000000" stroke="none" 
	d="
M236.005203,132.739197 
	C242.238617,129.662094 247.429352,130.743515 250.161880,135.329590 
	C252.461060,139.188370 251.290619,144.958755 247.649109,147.717850 
	C243.472076,150.882706 238.913467,150.485962 235.225281,146.636520 
	C231.176392,142.410629 231.327393,138.605530 236.005203,132.739197 
z"/>
<path fill="#1E6F6C" opacity="1.000000" stroke="none" 
	d="
M157.557709,131.003616 
	C163.174042,130.077927 167.119415,131.780014 169.134506,136.801025 
	C170.645172,140.565109 169.598343,143.867462 166.729233,146.722733 
	C163.814011,149.623886 160.337357,150.431076 156.746979,148.823273 
	C153.566223,147.398880 150.996033,145.199295 150.882523,141.012695 
	C150.750168,136.130341 152.382492,132.690063 157.557709,131.003616 
z"/>
<path fill="#1F6F6D" opacity="1.000000" stroke="none" 
	d="
M194.676392,231.714539 
	C201.062820,228.076523 206.680084,229.175705 209.520325,234.307785 
	C212.142456,239.045761 210.558121,244.226044 205.645538,246.977127 
	C201.888504,249.081100 196.835403,248.223801 193.844910,244.975037 
	C190.514282,241.356781 190.688980,237.087326 194.676392,231.714539 
z"/>
<path fill="#1F6F6C" opacity="1.000000" stroke="none" 
	d="
M136.789505,173.825760 
	C140.769867,170.751495 145.064880,169.793671 148.357697,173.182175 
	C150.587997,175.477264 152.180038,179.330399 152.266418,182.534988 
	C152.375778,186.591858 149.218948,189.398300 145.061234,190.273666 
	C141.110718,191.105408 137.983459,189.682083 135.626343,186.364029 
	C132.517136,181.987228 133.544174,177.982422 136.789505,173.825760 
z"/>
<path fill="#1F6F6D" opacity="1.000000" stroke="none" 
	d="
M251.243652,186.457275 
	C248.648102,181.608673 248.945435,177.339920 252.678543,173.796387 
	C255.923218,170.716461 259.840302,170.206512 263.694977,172.652023 
	C267.415009,175.012146 268.976410,178.554855 268.074768,182.956619 
	C266.629425,190.012833 257.460297,193.831329 251.243652,186.457275 
z"/>
<path fill="#1F706D" opacity="1.000000" stroke="none" 
	d="
M197.759506,114.136246 
	C203.107361,112.788528 206.991104,114.361351 209.573196,118.704796 
	C211.799484,122.449715 211.039154,126.098328 208.281570,129.227402 
	C205.315063,132.593582 201.151962,133.553040 197.487198,131.500015 
	C194.939850,130.072983 192.512146,127.005005 191.721725,124.194618 
	C190.450043,119.673065 193.441742,116.439629 197.759506,114.136246 
z"/>
<path fill="#C9EFD8" opacity="1.000000" stroke="none" 
	d="
M215.039917,182.156006 
	C213.231720,184.099686 211.783386,185.949417 209.993729,187.368774 
	C209.137848,188.047562 207.634735,187.910217 206.424744,188.142502 
	C206.316360,187.664383 206.207977,187.186249 206.099594,186.708130 
	C207.712250,184.896347 209.324905,183.084579 211.278030,180.890305 
	C209.498184,178.918747 207.791183,177.027878 205.748260,174.764923 
	C206.806610,174.115768 208.351288,173.020248 208.444794,173.132599 
	C210.809052,175.973053 213.020950,178.940292 215.039917,182.156006 
z"/>
<path fill="#C9EFD8" opacity="1.000000" stroke="none" 
	d="
M195.876099,186.912842 
	C194.561859,187.284164 192.855438,187.842026 192.116806,187.230652 
	C189.977783,185.460114 188.227661,183.219696 186.066071,180.884033 
	C188.305725,178.444473 190.303726,176.075729 192.546356,173.967178 
	C193.074844,173.470291 194.427643,173.850113 195.401230,173.826614 
	C195.280945,174.673340 195.440094,175.735260 194.986008,176.324951 
	C193.801788,177.862823 192.348892,179.193787 190.825348,180.794006 
	C192.686874,182.900284 194.306442,184.732788 195.876099,186.912842 
z"/>
<path fill="#CCF1D9" opacity="1.000000" stroke="none" 
	d="
M201.073395,186.937119 
	C200.098724,188.126480 199.163376,188.934525 198.228027,189.742554 
	C197.840424,189.369171 197.452805,188.995789 197.065201,188.622421 
	C198.447159,183.766998 199.756470,178.888489 201.283371,174.079086 
	C201.534897,173.286865 202.740936,172.797684 203.505829,172.168442 
	C203.924225,173.214615 204.894409,174.404770 204.665512,175.282059 
	C203.672058,179.089752 202.328827,182.806183 201.073395,186.937119 
z"/>
</svg>